<?xml version="1.0" standalone="no"?> <!DOCTYPE svg PUBLIC "-//W3C//DTD SVG 20010904//EN" "http://www.w3.org/TR/2001/REC-SVG-20010904/DTD/svg10.dtd"> <svg version="1.0" xmlns="http://www.w3.org/2000/svg" width="1800.000000pt" height="2682.000000pt" viewBox="0 0 1800.000000 2682.000000" preserveAspectRatio="xMidYMid meet"> <g transform="translate(0.000000,2682.000000) scale(0.100000,-0.100000)" fill="#000000" stroke="none"> <path d="M15270 26798 c0 -19 2 -20 10 -8 13 19 13 30 0 30 -5 0 -10 -10 -10 -22z"/> <path d="M9215 18730 c-153 -9 -326 -27 -375 -40 -19 -6 -54 -10 -77 -10 -23 0 -54 -5 -70 -11 -15 -6 -59 -15 -98 -20 -38 -5 -101 -15 -140 -22 -38 -8 -99 -20 -135 -26 -36 -7 -78 -17 -95 -23 -16 -5 -55 -15 -85 -23 -30 -7 -80 -20 -110 -29 -30 -9 -75 -21 -100 -27 -24 -5 -69 -19 -100 -30 -30 -12 -68 -25 -85 -29 -49 -13 -183 -64 -280 -105 -16 -7 -50 -21 -75 -30 -99 -38 -347 -157 -430 -206 -8 -5 -22 -12 -30 -15 -31 -11 -84 -39 -95 -50 -6 -7 -29 -21 -51 -33 -66 -36 -320 -207 -329 -221 -3 -5 -30 -25 -59 -45 -139 -92 -534 -456 -641 -590 -21 -28 -42 -52 -46 -55 -4 -3 -39 -48 -77 -100 -39 -52 -97 -129 -128 -170 -113 -150 -259 -389 -330 -540 -15 -30 -46 -96 -70 -145 -24 -50 -44 -93 -44 -97 0 -4 -11 -31 -25 -60 -28 -61 -42 -101 -92 -253 -19 -60 -41 -124 -49 -142 -8 -17 -14 -40 -14 -51 0 -12 -5 -33 -11 -49 -15 -38 -38 -120 -49 -168 -4 -22 -13 -53 -19 -70 -40 -115 -52 -195 -28 -195 12 1 25 25 67 125 48 114 88 188 184 340 17 28 36 58 41 67 33 55 142 208 170 238 18 19 38 45 44 57 13 25 107 152 125 168 6 6 27 30 46 55 41 53 62 77 241 269 73 79 161 166 194 194 33 28 78 67 100 88 54 51 87 79 132 112 21 15 62 46 92 70 117 90 232 177 236 177 3 0 38 24 79 53 156 110 271 176 541 310 189 94 282 137 299 137 6 0 25 7 41 16 37 20 149 63 190 73 17 4 40 13 52 19 12 7 31 12 42 12 11 0 35 6 53 14 39 16 104 35 253 75 61 15 130 34 155 40 25 7 70 16 100 21 30 4 62 11 70 14 16 6 161 29 290 45 36 5 94 14 130 20 214 37 793 52 1075 27 99 -9 205 -18 235 -20 30 -2 88 -9 129 -15 41 -6 95 -13 122 -15 26 -3 57 -9 68 -15 11 -6 40 -11 65 -11 25 0 65 -4 88 -10 24 -5 79 -16 123 -25 44 -8 109 -22 145 -31 36 -9 88 -19 115 -24 28 -4 61 -13 75 -18 15 -5 56 -13 93 -17 36 -4 74 -13 84 -21 17 -13 16 -16 -15 -41 -100 -85 -665 -592 -682 -613 -3 -4 -46 -41 -97 -83 -95 -80 -149 -144 -178 -212 -26 -61 -45 -141 -45 -188 0 -62 24 -166 50 -217 50 -97 166 -187 275 -213 84 -19 204 -20 268 -2 85 24 107 37 169 98 29 29 103 98 163 152 104 94 184 168 244 225 66 64 182 170 240 220 76 65 95 84 128 128 18 23 33 32 54 32 l30 0 -8 -67 c-4 -38 -8 -194 -8 -348 l0 -280 33 -66 c59 -116 133 -175 279 -223 70 -24 208 -18 281 11 114 46 198 123 252 232 l30 60 0 955 0 955 -47 15 c-27 8 -73 24 -103 36 -177 70 -504 172 -722 225 -54 13 -102 26 -107 29 -5 3 -35 10 -68 15 -32 5 -87 17 -123 26 -36 9 -87 21 -115 27 -27 5 -58 14 -67 19 -10 5 -50 12 -90 15 -40 4 -81 11 -91 16 -10 5 -48 13 -85 18 -37 5 -96 14 -132 20 -94 16 -184 28 -273 39 -44 6 -91 12 -105 16 -27 5 -180 17 -447 35 -160 10 -636 10 -830 0z m515 -77 c82 1 99 0 210 -7 197 -12 248 -17 291 -27 25 -5 50 -9 55 -8 27 8 294 -15 382 -32 57 -11 113 -17 124 -13 13 4 24 0 33 -14 12 -16 23 -18 63 -14 31 2 52 0 56 -7 4 -6 23 -11 42 -11 19 0 67 -9 106 -20 40 -11 89 -20 109 -20 24 0 39 -5 43 -15 3 -8 10 -15 17 -15 6 0 9 7 5 15 -3 10 1 15 13 15 10 0 21 -7 25 -15 3 -8 17 -15 31 -15 14 0 52 -9 85 -21 34 -12 71 -18 84 -15 13 3 37 -1 52 -9 16 -8 45 -18 64 -21 19 -3 52 -12 73 -20 20 -8 48 -14 62 -14 13 0 39 -6 57 -14 18 -8 62 -19 98 -26 36 -6 67 -16 68 -21 2 -5 11 -9 20 -9 8 0 23 -7 33 -16 22 -20 123 -47 171 -45 28 0 40 -5 48 -19 7 -14 21 -20 43 -20 18 0 71 -19 119 -41 87 -42 87 -42 99 -91 6 -28 9 -75 5 -106 -7 -76 -8 -177 -1 -897 4 -456 3 -630 -7 -690 -6 -44 -14 -82 -18 -85 -3 -3 -14 -23 -23 -46 -18 -40 -66 -94 -85 -94 -5 0 -29 -13 -53 -30 -24 -16 -57 -30 -72 -30 -16 0 -37 -5 -48 -10 -49 -27 -231 38 -250 88 -7 17 -14 22 -28 17 -25 -8 -96 72 -80 91 7 9 7 19 0 32 -6 11 -11 141 -13 320 l-3 301 -45 46 c-50 51 -69 58 -120 47 -25 -6 -35 -13 -35 -27 0 -15 -7 -20 -26 -20 -20 0 -25 -4 -21 -17 5 -20 -14 -25 -21 -5 -3 8 -12 4 -30 -13 -14 -14 -33 -31 -42 -38 -9 -8 -14 -19 -12 -25 2 -7 -10 -19 -27 -27 -17 -9 -33 -25 -36 -40 -3 -14 -15 -27 -25 -29 -11 -2 -31 -12 -44 -22 -13 -11 -29 -19 -36 -19 -7 0 -16 -15 -21 -32 -7 -24 -20 -38 -46 -51 -20 -10 -40 -27 -43 -38 -4 -11 -22 -26 -41 -34 -19 -8 -39 -25 -45 -39 -7 -14 -21 -26 -33 -28 -11 -2 -26 -13 -32 -26 -18 -36 -136 -152 -176 -173 -20 -10 -41 -25 -45 -31 -14 -23 -75 -61 -112 -70 -97 -25 -140 -28 -183 -13 -24 8 -52 15 -64 15 -11 0 -35 11 -54 25 -19 14 -40 25 -47 25 -7 0 -25 14 -40 32 -16 18 -39 42 -52 55 -19 18 -23 30 -18 58 3 19 2 37 -3 40 -16 10 -42 73 -35 84 10 17 21 13 33 -11 8 -18 11 -19 11 -6 1 9 -3 20 -9 23 -21 13 -10 85 23 152 44 93 65 121 99 139 17 9 27 21 24 29 -7 20 28 47 55 40 31 -7 46 4 50 35 3 15 15 30 32 38 15 7 27 17 27 21 0 5 14 14 30 21 17 7 36 24 43 39 7 14 22 27 35 29 13 2 28 14 34 28 6 13 19 26 28 29 9 3 21 14 26 24 10 21 103 101 117 101 5 0 6 9 2 19 -8 26 8 34 39 20 33 -15 42 -6 28 26 -11 24 -10 26 16 23 20 -2 27 1 26 14 -1 10 21 36 52 60 29 24 53 49 54 57 0 11 3 11 16 0 13 -10 17 -10 25 2 5 8 9 24 9 37 0 12 6 22 13 22 17 0 39 53 31 75 -6 15 -3 17 19 11 25 -6 25 -6 11 24 -9 17 -20 30 -25 30 -5 0 -9 9 -9 19 0 24 -63 77 -105 90 -16 5 -66 17 -110 26 -44 9 -93 21 -109 26 -16 5 -40 9 -52 9 -13 0 -24 5 -24 10 0 6 -24 10 -54 10 -32 0 -58 5 -65 13 -7 10 -27 12 -64 9 -31 -2 -63 1 -76 7 -31 17 -409 66 -566 74 -44 2 -135 10 -202 16 -255 25 -923 -5 -1128 -49 -27 -6 -85 -12 -128 -14 -58 -2 -84 -7 -105 -22 -23 -17 -37 -19 -102 -14 -69 6 -77 4 -103 -17 -18 -15 -42 -23 -65 -23 -20 0 -57 -9 -81 -20 -23 -11 -47 -17 -53 -14 -5 3 -22 -6 -38 -21 -24 -23 -31 -25 -49 -15 -24 12 -55 5 -185 -43 -38 -15 -89 -29 -115 -33 -25 -4 -72 -19 -105 -35 -32 -16 -64 -29 -72 -29 -8 0 -14 -4 -14 -10 0 -5 -19 -13 -41 -16 -29 -5 -43 -13 -47 -26 -4 -16 -13 -19 -46 -17 -60 3 -69 1 -63 -15 4 -10 -10 -19 -46 -30 -74 -23 -187 -77 -215 -103 -27 -25 -38 -28 -47 -13 -8 13 -45 13 -45 1 0 -5 6 -11 13 -14 20 -7 -2 -22 -70 -47 -36 -13 -63 -28 -63 -36 0 -8 -10 -14 -23 -14 -13 0 -51 -22 -85 -50 -34 -27 -69 -50 -77 -50 -8 0 -19 -9 -25 -20 -6 -11 -19 -20 -30 -20 -29 0 -50 -11 -50 -26 0 -14 -129 -104 -149 -104 -7 0 -29 -18 -48 -40 -20 -22 -42 -40 -50 -40 -20 0 -73 -41 -73 -57 0 -13 -7 -16 -50 -15 -16 1 -19 -1 -7 -4 9 -3 17 -11 17 -19 0 -17 -66 -56 -88 -53 -12 2 -17 -4 -16 -19 0 -13 -4 -23 -9 -23 -18 0 -172 -123 -172 -137 0 -5 -11 -25 -23 -45 -23 -37 -47 -49 -54 -27 -2 6 -17 -8 -33 -30 -16 -23 -37 -47 -47 -52 -10 -5 -18 -16 -18 -24 0 -8 -6 -15 -14 -15 -10 0 -12 -7 -8 -22 4 -18 2 -20 -17 -15 -16 4 -21 2 -18 -8 6 -15 -32 -51 -59 -57 -12 -2 -22 -17 -27 -41 -5 -20 -14 -37 -21 -36 -31 4 -46 -3 -46 -20 0 -11 -7 -26 -15 -35 -8 -8 -15 -24 -15 -35 0 -11 -9 -22 -22 -27 -24 -7 -57 -42 -58 -61 0 -6 -45 -53 -100 -105 -68 -63 -100 -100 -100 -115 0 -35 -22 -73 -42 -73 -27 0 -23 29 17 116 20 43 33 85 30 95 -8 25 12 60 30 53 12 -5 15 2 15 32 0 31 8 48 36 79 28 31 34 46 30 67 -4 21 2 35 25 60 16 18 34 49 39 69 11 39 56 107 101 152 20 20 29 40 31 70 2 34 6 41 21 39 15 -3 18 2 15 25 -2 24 0 28 19 25 16 -2 24 5 32 31 7 19 9 43 5 53 -5 18 -5 18 10 0 13 -16 19 -17 29 -7 10 10 8 15 -6 25 -10 8 -15 20 -11 30 8 20 23 21 30 1 12 -29 26 -15 20 18 -6 30 -2 37 34 69 29 26 46 35 61 31 19 -5 21 -3 17 20 -4 21 -1 27 13 27 12 0 19 7 19 18 0 10 16 37 35 59 19 23 35 47 35 53 0 7 45 56 100 110 55 55 100 104 100 109 0 11 129 121 141 121 4 0 13 16 20 35 9 24 18 34 28 30 24 -9 49 5 55 31 6 21 12 25 32 21 21 -4 24 -1 22 21 -2 20 3 27 26 35 16 5 37 18 47 28 11 11 25 19 32 19 7 0 20 8 29 18 47 51 110 96 135 97 18 0 28 5 28 15 0 8 13 30 29 47 22 25 35 31 52 27 13 -3 25 0 31 8 11 18 96 72 155 97 25 12 48 28 52 36 3 8 17 15 31 15 14 0 25 5 25 10 0 6 -5 10 -11 10 -5 0 -7 5 -4 10 3 6 21 10 40 10 20 0 35 6 39 15 6 16 108 65 135 65 9 0 25 6 36 14 11 7 52 26 90 41 39 15 77 33 85 39 23 18 89 46 107 46 9 0 21 -7 28 -16 9 -12 16 -14 29 -7 16 9 16 11 2 23 -20 16 -4 40 27 40 26 0 63 12 247 78 30 11 82 26 115 33 33 7 71 21 84 31 17 13 41 18 83 18 49 0 66 5 94 26 35 27 55 30 130 19 30 -5 43 -3 53 9 8 9 24 16 38 16 13 0 35 7 48 16 20 13 28 14 40 4 13 -10 19 -9 36 6 13 12 37 19 63 20 22 1 79 7 126 14 47 7 101 14 120 16 19 2 53 6 75 9 22 2 147 11 278 19 131 7 240 15 242 17 2 2 48 3 102 3 54 -1 132 -1 173 -1z"/> <path d="M11932 16199 c2 -6 8 -10 13 -10 5 0 11 4 13 10 2 6 -4 11 -13 11 -9 0 -15 -5 -13 -11z"/> <path d="M5167 16019 c-9 -6 -17 -14 -17 -19 0 -17 27 -11 34 6 8 22 5 25 -17 13z"/> <path d="M6406 16813 c-11 -11 -6 -23 9 -23 8 0 15 4 15 9 0 13 -16 22 -24 14z"/> <path d="M3449 16416 c-2 -2 -71 -9 -154 -15 -150 -11 -203 -18 -345 -47 -118 -24 -200 -49 -310 -96 -14 -5 -38 -16 -55 -23 -220 -92 -378 -212 -507 -383 -89 -119 -86 -113 -149 -242 -28 -58 -55 -113 -60 -122 -5 -10 -13 -34 -18 -55 -5 -21 -14 -51 -20 -68 -22 -64 -41 -138 -41 -159 0 -11 -7 -55 -16 -96 -22 -106 -23 -633 -1 -712 8 -29 18 -78 22 -108 3 -30 10 -66 14 -80 5 -14 16 -52 26 -85 28 -97 49 -149 114 -285 95 -196 223 -350 411 -492 111 -84 283 -188 310 -188 6 0 34 -11 63 -25 28 -14 68 -30 87 -35 19 -4 49 -13 65 -18 87 -29 107 -34 295 -62 166 -25 741 -19 920 10 200 32 260 43 306 56 28 8 66 14 85 14 19 0 40 4 47 8 9 6 13 74 14 283 1 310 6 293 -80 266 -115 -37 -263 -65 -407 -77 -60 -6 -134 -15 -164 -20 -72 -13 -362 -13 -434 0 -31 6 -89 15 -129 20 -95 11 -220 39 -233 51 -5 5 -15 9 -22 9 -21 0 -141 60 -203 101 -91 60 -150 115 -213 198 -99 130 -158 252 -197 405 -70 280 -39 753 64 966 82 169 164 269 281 344 87 56 145 83 273 125 144 47 316 70 557 72 175 2 378 -14 495 -37 121 -25 228 -52 249 -63 11 -6 27 -11 36 -11 10 0 37 -13 62 -30 69 -47 90 -37 72 36 -5 22 -8 143 -7 269 l1 230 -34 17 c-36 18 -200 68 -284 88 -63 15 -211 36 -385 55 -123 13 -391 21 -401 11z m365 -117 c96 -6 184 -16 201 -24 17 -7 71 -16 120 -20 50 -4 99 -14 110 -21 11 -8 33 -14 50 -14 17 0 36 -5 41 -10 6 -6 30 -20 55 -33 l44 -22 9 -98 c8 -92 7 -100 -13 -127 -11 -16 -21 -38 -21 -50 0 -11 -2 -20 -5 -20 -18 0 -150 41 -161 51 -8 6 -26 8 -44 4 -21 -5 -39 -2 -56 10 -20 13 -37 15 -74 10 -30 -4 -50 -3 -55 4 -3 6 -27 11 -53 11 -26 0 -64 5 -85 11 -23 6 -43 7 -50 1 -7 -4 -91 -7 -187 -6 -136 2 -186 -1 -224 -13 -43 -14 -50 -14 -63 0 -14 14 -19 13 -46 -3 -23 -14 -35 -16 -49 -9 -14 8 -29 6 -53 -5 -18 -9 -52 -16 -75 -16 -33 0 -41 -3 -36 -15 4 -12 -4 -15 -38 -15 -39 0 -86 -15 -126 -41 -8 -5 -38 -21 -67 -34 -29 -13 -70 -40 -91 -60 -22 -19 -49 -35 -60 -35 -11 0 -22 -7 -26 -15 -3 -8 -15 -15 -26 -15 -12 0 -20 -7 -20 -17 0 -10 -29 -48 -64 -85 -40 -41 -60 -70 -55 -75 6 -6 -2 -31 -23 -66 -32 -55 -52 -69 -61 -44 -3 6 -2 -7 0 -30 3 -25 1 -43 -4 -43 -5 0 -16 -19 -23 -42 -7 -24 -16 -52 -20 -63 -18 -43 -43 -165 -54 -260 -14 -130 -4 -483 18 -584 8 -40 25 -89 36 -108 11 -19 20 -47 20 -63 0 -16 5 -32 10 -35 15 -9 40 -73 40 -100 0 -18 4 -22 20 -18 17 5 20 0 20 -31 0 -20 4 -36 9 -36 5 0 12 -8 15 -17 3 -10 21 -35 40 -55 19 -21 36 -48 38 -60 2 -13 11 -24 23 -27 24 -4 62 -43 67 -68 2 -13 14 -19 41 -21 38 -3 52 -27 22 -38 -28 -11 -4 -25 31 -18 27 5 34 3 34 -10 0 -9 11 -22 25 -28 14 -6 25 -15 25 -20 0 -21 214 -98 290 -105 42 -3 75 -12 93 -25 18 -12 37 -18 52 -14 20 5 58 -3 105 -22 8 -3 126 -6 263 -7 199 0 247 2 247 13 0 14 37 16 235 13 61 -1 83 3 91 14 8 11 37 18 97 22 85 6 86 6 91 -18 10 -51 16 -178 10 -218 -6 -37 -11 -43 -58 -65 -54 -25 -235 -57 -436 -77 -63 -6 -118 -13 -123 -16 -7 -4 -198 -3 -422 3 -119 3 -288 20 -347 35 -82 20 -123 29 -183 39 -40 7 -65 17 -74 30 -7 11 -24 20 -37 20 -13 0 -32 10 -43 21 -15 17 -27 20 -51 16 -16 -4 -30 -3 -30 2 0 19 -59 71 -74 65 -9 -3 -41 15 -84 49 -37 30 -77 56 -87 58 -11 3 -24 14 -31 26 -6 12 -23 32 -37 43 -15 12 -27 27 -27 33 0 7 -13 19 -29 28 -16 9 -48 41 -71 70 -23 30 -51 60 -61 67 -11 7 -19 18 -19 24 0 6 -8 20 -17 30 -10 11 -18 29 -18 42 -1 12 -20 56 -43 98 -23 41 -42 80 -42 85 0 6 -10 23 -22 38 -21 27 -28 49 -53 185 -8 41 -19 92 -25 114 -6 21 -9 49 -6 62 4 14 1 26 -8 31 -16 9 -27 89 -24 173 1 30 1 69 0 85 -10 246 -9 263 24 435 9 47 17 102 19 122 1 21 7 43 13 51 6 7 16 33 21 57 12 53 71 198 95 231 9 13 16 35 17 49 0 14 3 19 6 13 7 -19 23 -16 24 5 1 30 33 87 49 87 9 0 16 11 18 26 3 28 70 101 176 194 32 28 73 65 93 83 36 34 73 42 73 17 0 -16 5 -17 35 -6 17 7 16 8 -9 15 -34 8 -29 30 9 34 15 2 38 10 50 18 12 8 25 11 28 7 4 -3 15 1 24 9 10 8 52 27 93 42 41 15 86 32 100 38 48 20 161 45 186 40 13 -2 31 1 39 8 9 7 35 15 58 16 23 2 96 8 162 14 66 6 163 9 215 6 52 -3 104 -1 115 4 27 12 23 12 219 -1z"/> <path d="M10110 16055 c0 -8 5 -15 10 -15 6 0 10 7 10 15 0 8 -4 15 -10 15 -5 0 -10 -7 -10 -15z"/> <path d="M7976 15500 l-238 -5 1 -590 c0 -324 4 -846 7 -1160 5 -406 3 -587 -5 -630 -9 -46 -8 -62 1 -71 10 -9 96 -13 328 -15 l315 -3 2 848 c1 467 5 852 10 856 11 12 266 140 276 140 5 0 23 6 40 13 101 43 173 57 307 62 l85 3 3 277 2 277 -118 -6 c-166 -7 -199 -16 -322 -84 -30 -16 -75 -40 -100 -53 -70 -36 -144 -85 -195 -129 -59 -51 -75 -52 -75 -2 0 22 -7 61 -15 88 -8 27 -18 75 -21 107 -6 53 -25 90 -42 85 -4 -1 -114 -5 -246 -8z m138 -129 c43 -7 70 -36 47 -50 -16 -10 -6 -31 15 -31 8 0 14 -8 14 -18 0 -10 9 -26 21 -35 11 -10 25 -31 31 -48 5 -16 23 -36 39 -45 16 -8 29 -19 29 -25 0 -8 5 -8 15 1 8 6 23 9 33 6 20 -7 100 33 122 59 7 8 21 15 32 15 10 0 30 12 43 26 16 18 31 25 44 21 14 -3 25 3 35 18 10 15 27 25 48 27 24 2 33 8 32 20 -1 14 4 16 23 12 15 -4 30 -1 41 9 9 8 27 18 40 21 12 4 22 12 22 18 0 6 10 8 22 5 12 -3 29 -2 39 3 12 7 24 4 40 -9 13 -9 31 -20 40 -24 17 -6 17 -2 10 -193 -1 -30 -8 -48 -26 -65 -13 -13 -25 -30 -25 -37 0 -8 -10 -13 -27 -12 -16 1 -50 2 -77 1 -38 -1 -47 -4 -42 -16 4 -12 -5 -15 -55 -15 -52 0 -62 -3 -66 -20 -6 -22 -33 -26 -51 -8 -9 9 -15 9 -24 -1 -10 -11 -10 -14 0 -18 21 -8 13 -23 -14 -23 -34 0 -64 -17 -58 -34 4 -9 -7 -15 -34 -20 -22 -3 -45 -13 -52 -21 -7 -8 -18 -15 -24 -15 -6 0 -35 -24 -64 -53 -43 -44 -53 -61 -62 -107 -7 -35 -11 -315 -11 -771 0 -529 -3 -722 -12 -739 -17 -34 -56 -42 -207 -40 -108 1 -141 5 -165 19 -30 17 -30 18 -37 132 -6 105 -2 482 6 674 3 56 -1 92 -11 118 -12 28 -14 55 -9 102 4 36 6 199 5 362 0 164 -1 307 0 318 0 11 0 94 0 185 1 91 6 190 11 220 6 30 12 64 13 75 1 11 5 25 9 30 6 11 163 8 232 -4z"/> <path d="M5645 15485 c-44 -8 -107 -14 -140 -15 -33 0 -80 -5 -105 -10 -25 -6 -67 -14 -95 -20 -27 -5 -79 -15 -115 -23 l-64 -14 -2 -254 c0 -140 1 -257 3 -261 1 -3 36 3 75 14 270 73 697 114 923 89 184 -20 314 -85 370 -186 32 -58 34 -64 36 -182 2 -75 -1 -127 -7 -133 -7 -7 -22 -6 -46 4 -27 12 -97 17 -279 21 -134 3 -260 8 -279 10 -47 5 -295 -19 -395 -39 -44 -8 -105 -25 -135 -36 -30 -12 -64 -24 -75 -27 -11 -3 -27 -11 -35 -17 -8 -6 -31 -20 -50 -30 -158 -87 -260 -221 -295 -387 -27 -131 -13 -424 23 -496 5 -10 19 -38 31 -63 116 -239 291 -347 651 -399 134 -20 224 -23 290 -11 36 6 96 15 134 20 38 6 83 14 100 19 17 5 58 17 91 26 115 33 272 110 318 157 26 26 32 23 63 -29 15 -27 55 -76 89 -109 l62 -61 144 -7 c79 -3 162 -9 184 -12 l40 -6 -2 829 c-3 959 -6 1010 -65 1155 -64 156 -175 285 -288 336 -19 9 -42 21 -50 28 -8 6 -24 14 -35 17 -11 3 -45 15 -75 26 -68 26 -192 54 -330 75 -131 20 -543 20 -665 1z m682 -114 c12 -6 44 -11 70 -10 86 1 103 -1 103 -10 0 -6 16 -13 35 -17 20 -3 35 -12 35 -20 0 -10 13 -14 41 -14 26 0 50 -7 66 -20 14 -11 34 -20 43 -20 10 0 23 -6 29 -14 7 -8 22 -17 35 -20 14 -3 26 -16 30 -31 4 -16 13 -25 27 -25 27 0 68 -49 69 -82 0 -19 7 -28 28 -36 24 -8 29 -18 41 -73 8 -40 20 -68 32 -77 20 -14 25 -52 9 -81 -6 -13 -5 -24 5 -37 9 -13 14 -45 15 -95 0 -41 5 -80 11 -86 6 -6 8 -17 4 -24 -6 -9 -12 -7 -23 7 -13 17 -14 14 -6 -31 4 -27 6 -68 4 -90 -3 -50 -2 -117 3 -170 6 -57 9 -272 9 -625 1 -526 2 -519 -55 -521 -18 0 -52 -1 -77 -1 -57 -1 -89 16 -164 84 -32 29 -66 57 -75 62 -9 5 -26 18 -38 29 -21 19 -24 19 -41 4 -21 -19 -42 -22 -42 -7 0 16 -14 12 -39 -11 -12 -12 -30 -19 -40 -16 -10 2 -23 -3 -30 -14 -6 -11 -17 -19 -24 -19 -6 0 -29 -5 -50 -11 -26 -7 -37 -15 -33 -24 5 -15 -5 -19 -64 -30 -19 -3 -80 -17 -135 -30 -122 -29 -347 -49 -396 -35 -19 6 -52 9 -74 8 -69 -2 -206 36 -327 91 -38 17 -68 36 -68 41 0 6 -9 10 -19 10 -26 0 -51 10 -51 21 0 5 7 9 15 9 8 0 15 5 15 10 0 6 -8 10 -19 10 -25 0 -95 95 -138 188 -30 64 -36 92 -44 186 -5 61 -9 120 -9 131 1 55 3 65 11 65 5 0 9 16 9 36 0 19 14 70 31 113 28 71 33 78 55 73 29 -5 33 14 5 23 -29 9 -14 35 20 35 26 0 29 4 29 30 0 31 17 39 38 18 14 -14 42 6 42 31 0 9 19 24 43 35 23 10 49 25 58 33 10 8 33 13 55 11 35 -3 39 -1 36 18 -2 19 2 21 56 20 40 -1 67 5 85 17 21 14 38 16 78 11 34 -5 58 -2 75 7 20 10 31 10 58 1 37 -14 122 -16 130 -4 3 5 49 7 103 4 54 -2 155 -3 224 -2 82 1 135 -2 149 -10 28 -15 70 -5 70 16 0 13 3 14 14 5 15 -12 26 -6 69 39 7 6 24 24 39 38 15 15 28 36 28 47 1 11 3 53 6 93 3 42 1 78 -4 85 -6 7 -13 33 -17 58 -5 34 -11 46 -23 45 -9 0 -18 8 -20 19 -2 11 -10 24 -18 28 -23 13 -18 39 6 32 11 -4 20 -2 20 4 0 6 -11 11 -25 11 -14 0 -28 7 -31 15 -4 8 -10 15 -16 15 -16 0 -78 54 -78 69 0 9 -8 11 -26 7 -19 -5 -33 -2 -48 12 -12 11 -64 30 -116 43 -160 38 -481 30 -827 -22 -178 -27 -173 -30 -173 111 0 96 2 112 19 128 55 49 62 52 106 42 34 -8 43 -6 61 11 16 15 34 19 75 19 30 -1 101 3 159 7 159 13 641 8 667 -6z"/> <path d="M5911 14184 c-25 -6 -74 -14 -109 -18 -89 -8 -164 -47 -243 -125 -74 -74 -94 -107 -110 -180 -25 -118 39 -307 116 -342 42 -20 69 -38 77 -53 5 -9 16 -16 25 -16 9 0 37 -10 62 -22 33 -16 63 -22 111 -21 165 1 349 22 395 43 43 21 109 40 134 40 15 0 42 11 61 25 19 14 40 25 47 25 21 0 93 70 93 91 0 10 5 21 10 24 6 3 10 1 10 -4 0 -6 4 -11 9 -11 20 0 33 72 36 195 4 149 -8 212 -42 228 -13 6 -23 17 -23 26 0 55 -229 106 -474 106 -77 0 -160 -5 -185 -11z m443 -109 c45 -8 101 -16 126 -18 l45 -3 0 -188 0 -188 -60 -31 c-164 -86 -353 -129 -570 -131 -169 0 -202 9 -274 77 -68 64 -107 237 -66 291 8 11 15 27 15 36 0 35 98 102 190 128 115 34 164 39 334 41 123 1 205 -4 260 -14z"/> <path d="M10205 15484 c-187 -31 -347 -88 -460 -163 -110 -73 -223 -197 -282 -310 -61 -115 -83 -166 -83 -196 0 -13 -6 -36 -14 -52 -47 -94 -81 -515 -56 -693 11 -80 19 -116 57 -250 89 -319 303 -552 645 -704 20 -9 42 -16 50 -16 7 0 33 -6 58 -14 45 -15 136 -33 280 -58 139 -23 717 -3 900 32 29 6 76 10 105 10 31 0 56 5 61 13 5 6 9 131 9 277 -1 226 -3 265 -15 263 -8 -1 -62 -10 -120 -21 -174 -33 -331 -46 -610 -50 -319 -4 -432 11 -555 76 -85 45 -195 148 -195 184 0 7 -6 23 -14 34 -17 23 -46 141 -46 182 l0 27 787 -3 c434 -1 808 -6 833 -12 25 -5 49 -5 53 -1 5 5 7 141 4 302 -4 256 -7 306 -26 384 -12 50 -24 101 -27 115 -9 42 -94 208 -136 269 -91 130 -192 212 -333 270 -221 91 -330 112 -600 117 -126 2 -207 -1 -270 -12z m346 -100 c6 -3 40 -7 77 -9 99 -4 225 -26 242 -41 11 -9 29 -11 55 -7 36 6 39 5 27 -10 -12 -14 -10 -17 12 -23 14 -3 32 -4 40 -1 8 3 24 -5 37 -19 12 -13 32 -24 43 -24 11 0 43 -22 71 -49 27 -27 63 -53 79 -58 20 -6 37 -24 57 -61 28 -53 61 -99 100 -138 15 -15 19 -28 14 -43 -4 -14 -1 -23 9 -27 9 -4 16 -18 16 -33 0 -15 4 -31 9 -37 21 -23 43 -198 48 -388 6 -230 3 -241 -61 -250 -22 -3 -356 -7 -741 -7 -673 -1 -702 -2 -742 -21 -24 -11 -43 -25 -43 -32 0 -7 -16 -20 -35 -29 -32 -15 -35 -20 -35 -60 0 -24 5 -48 12 -55 9 -9 9 -15 0 -24 -6 -6 -8 -18 -3 -27 5 -9 11 -31 15 -50 3 -19 17 -49 31 -67 14 -18 25 -39 25 -47 0 -8 7 -18 16 -21 9 -4 14 -13 10 -22 -6 -15 52 -75 137 -143 36 -28 180 -81 221 -81 10 0 29 -6 44 -14 15 -7 61 -17 102 -21 89 -8 63 -8 285 -1 349 12 440 17 552 31 47 7 52 5 68 -18 14 -21 16 -44 12 -126 -6 -141 -7 -142 -154 -169 -243 -45 -808 -49 -893 -7 -14 7 -52 16 -85 20 -33 4 -82 16 -110 26 -27 10 -58 19 -68 19 -10 0 -33 11 -50 24 -18 14 -44 27 -59 31 -15 4 -29 13 -32 21 -3 8 -16 14 -28 14 -13 0 -29 4 -37 9 -13 8 -13 12 0 27 13 16 11 17 -23 11 -35 -5 -54 6 -26 15 22 8 -3 28 -26 22 -19 -4 -25 -1 -30 21 -4 14 -17 31 -31 37 -13 6 -26 21 -29 33 -3 12 -19 28 -36 35 -31 13 -37 24 -19 35 6 4 -4 17 -25 31 -20 14 -36 32 -36 40 0 9 -9 27 -20 41 -11 14 -20 36 -20 48 0 35 -21 85 -40 95 -10 5 -20 24 -23 42 -2 18 -14 71 -26 117 -21 79 -22 97 -15 325 9 337 8 328 26 361 9 17 21 56 29 88 8 38 19 62 31 68 15 8 17 13 8 25 -17 19 -4 61 20 67 12 3 20 14 20 25 0 11 15 42 33 70 19 27 37 57 40 66 5 12 13 15 27 11 11 -4 20 -2 20 4 0 6 7 11 15 11 8 0 15 5 15 11 0 6 -7 8 -16 5 -31 -12 -34 6 -5 34 19 20 35 27 49 23 14 -3 24 2 31 16 7 12 18 21 26 21 8 0 15 7 15 15 0 8 -4 15 -10 15 -5 0 -10 5 -10 10 0 6 7 6 18 -1 14 -9 25 -6 56 15 21 14 44 26 51 26 7 0 18 7 25 15 7 8 21 15 33 15 11 0 35 9 54 21 18 12 42 19 51 17 10 -3 24 1 31 9 9 10 24 12 50 8 22 -4 49 -1 69 8 33 14 314 23 333 11z"/> <path d="M10300 15080 c-41 -11 -79 -25 -84 -30 -6 -6 -18 -10 -28 -10 -22 0 -88 -31 -88 -42 0 -4 -25 -20 -55 -34 -62 -31 -88 -55 -67 -61 20 -7 14 -17 -17 -31 -25 -11 -32 -22 -42 -68 -7 -30 -18 -59 -26 -65 -7 -6 -13 -21 -13 -33 0 -11 -6 -33 -14 -47 -7 -14 -16 -51 -20 -81 l-7 -55 54 -55 c30 -31 60 -65 66 -77 7 -11 19 -21 29 -20 10 0 12 3 5 6 -14 5 -18 35 -6 46 3 4 15 -1 25 -10 22 -20 121 -23 403 -13 122 5 178 3 200 -6 24 -9 47 -9 110 1 44 7 103 11 131 8 93 -10 186 41 218 117 27 67 8 205 -39 274 -13 20 -22 42 -19 49 3 8 -6 18 -20 25 -15 7 -27 23 -31 42 -8 35 -39 72 -58 69 -23 -3 -36 1 -49 15 -19 19 -74 46 -93 46 -8 0 -23 4 -33 10 -88 49 -305 64 -432 30z m365 -112 c139 -35 230 -103 279 -210 26 -57 63 -234 51 -246 -3 -4 -232 -7 -508 -7 -276 0 -509 -3 -517 -8 -9 -4 -23 -2 -34 6 -18 14 -19 16 -1 68 9 30 23 68 30 84 7 17 19 45 26 64 7 18 32 60 56 93 48 64 153 140 213 153 19 4 42 11 50 16 23 14 287 4 355 -13z"/> <path d="M10790 14380 c0 -5 7 -10 15 -10 8 0 15 5 15 10 0 6 -7 10 -15 10 -8 0 -15 -4 -15 -10z"/> <path d="M12845 15479 c-60 -10 -119 -23 -130 -28 -11 -5 -33 -12 -50 -16 -16 -3 -72 -26 -124 -51 -302 -142 -462 -376 -536 -779 -23 -127 -24 -554 -1 -638 9 -32 16 -67 16 -77 0 -37 68 -228 112 -315 34 -66 97 -146 170 -217 72 -70 215 -172 270 -193 49 -18 111 -44 130 -55 10 -6 27 -10 38 -10 10 0 34 -6 52 -14 34 -15 139 -37 268 -57 41 -6 160 -13 265 -16 193 -6 425 10 630 42 50 8 111 17 137 20 26 4 50 10 53 15 10 16 9 520 -1 530 -5 5 -28 5 -54 0 -224 -44 -408 -61 -694 -67 -272 -5 -356 4 -486 53 -171 64 -276 178 -301 326 -5 35 -13 78 -16 97 l-6 34 79 -6 c44 -4 423 -7 844 -8 l765 0 6 98 c28 435 -17 672 -184 953 -86 144 -260 272 -442 324 -33 9 -74 21 -92 27 -17 5 -91 19 -163 29 -172 26 -401 25 -555 -1z m101 -106 c5 15 26 16 187 11 270 -9 295 -11 382 -33 44 -11 94 -20 112 -21 23 0 31 -4 27 -14 -5 -13 42 -31 76 -28 8 0 19 -6 23 -14 4 -8 29 -25 55 -38 26 -13 77 -56 113 -95 37 -39 71 -71 78 -71 6 0 11 -13 11 -29 0 -17 4 -32 9 -35 5 -3 12 -18 16 -33 3 -16 19 -45 36 -65 28 -36 66 -140 88 -248 14 -71 22 -321 10 -336 -5 -6 -4 -23 3 -41 8 -21 9 -41 2 -64 -16 -56 -41 -59 -518 -59 -232 0 -520 0 -641 0 -121 0 -263 -3 -315 -6 l-95 -7 -43 -45 c-32 -33 -42 -50 -38 -65 3 -12 -2 -29 -11 -39 -11 -12 -13 -21 -6 -30 6 -7 13 -30 17 -51 4 -21 10 -46 13 -55 4 -14 3 -15 -6 -2 -12 18 -26 7 -15 -12 5 -7 7 -23 5 -36 -1 -15 4 -25 18 -30 11 -4 34 -34 52 -67 37 -71 66 -105 89 -105 9 0 25 -9 35 -20 34 -37 122 -80 166 -80 32 0 42 -4 46 -19 7 -28 138 -44 373 -44 304 -1 527 13 591 38 10 3 20 2 24 -4 10 -18 48 -14 41 4 -3 10 1 15 12 15 30 0 72 -24 71 -40 -1 -8 1 -27 6 -43 8 -30 -10 -176 -27 -213 -6 -14 -21 -26 -32 -28 -12 -3 -46 -9 -76 -15 -144 -29 -237 -36 -475 -35 -220 2 -305 6 -495 28 -25 3 -90 21 -144 41 -55 19 -107 33 -116 30 -17 -5 -38 11 -39 30 0 6 -8 11 -18 13 -10 2 -27 7 -38 12 -11 5 -29 10 -40 12 -12 2 -20 11 -20 23 0 13 -8 21 -22 23 -27 4 -163 134 -163 155 0 8 -15 18 -32 24 -25 7 -33 15 -32 31 0 15 -5 21 -15 20 -9 -2 -17 6 -19 17 -2 11 -10 23 -17 28 -8 4 -13 20 -13 35 0 15 -15 59 -33 97 -18 39 -34 86 -36 105 -11 120 -15 147 -23 165 -21 50 -25 95 -22 325 2 189 6 252 18 274 7 16 14 45 14 65 0 20 7 45 15 55 8 11 15 27 15 36 0 8 9 23 19 32 16 13 19 25 14 53 -4 27 -1 43 14 63 11 15 23 37 27 48 4 12 15 29 26 39 11 10 20 23 20 30 0 17 24 65 33 65 4 0 7 -4 7 -10 0 -5 11 -10 25 -10 18 0 25 5 25 19 0 14 -5 18 -20 14 -14 -4 -20 0 -20 11 0 13 8 16 37 14 31 -2 38 1 41 17 6 30 29 52 97 90 35 19 65 42 69 50 3 9 18 15 39 15 19 0 40 6 46 14 6 8 26 16 44 20 65 11 133 25 167 34 27 7 39 5 52 -6 16 -13 18 -13 24 1z"/> <path d="M12990 15074 c-62 -9 -97 -19 -103 -29 -4 -8 -19 -15 -32 -15 -13 0 -28 -6 -32 -13 -11 -19 -39 -27 -51 -15 -14 14 -53 -27 -46 -47 4 -10 0 -15 -14 -15 -11 0 -35 -18 -53 -40 -98 -115 -119 -152 -119 -205 0 -20 -5 -45 -11 -57 -6 -11 -12 -44 -13 -74 -3 -53 -2 -55 45 -99 27 -25 57 -45 67 -45 11 0 37 -6 58 -14 31 -10 101 -12 358 -6 175 4 337 3 360 -1 22 -4 46 -4 51 0 6 4 50 8 98 9 78 1 92 4 122 27 46 36 65 68 75 128 15 96 -31 265 -86 314 -13 12 -24 26 -24 31 0 9 -54 52 -66 52 -3 0 -23 14 -44 30 -21 17 -45 30 -53 30 -8 0 -17 6 -20 13 -2 6 -24 18 -48 25 -119 34 -255 40 -419 16z m345 -104 c122 -29 233 -106 282 -198 27 -51 67 -242 54 -260 -4 -4 -222 -7 -486 -7 -264 0 -498 -4 -521 -8 -29 -5 -46 -3 -60 7 -17 13 -18 17 -5 48 7 18 16 47 19 63 2 17 11 39 18 50 8 11 14 26 14 33 0 8 13 33 28 56 15 22 31 49 35 58 9 24 120 109 165 126 119 46 334 61 457 32z"/> <path d="M14777 14269 l3 -1231 272 -2 c150 -2 291 -7 314 -11 31 -5 42 -4 45 6 2 8 2 389 -1 847 -3 458 -3 840 0 848 6 17 13 20 155 93 56 28 107 51 114 51 7 0 25 6 39 14 37 20 126 46 155 46 14 0 44 7 68 15 31 11 62 14 113 9 l71 -6 0 277 0 278 -143 -6 c-84 -3 -149 -10 -155 -16 -6 -6 -20 -11 -32 -11 -11 -1 -47 -17 -80 -36 -33 -19 -73 -42 -90 -50 -16 -8 -43 -23 -60 -34 -16 -11 -37 -23 -45 -27 -13 -6 -74 -52 -155 -117 -30 -24 -45 -14 -45 34 0 21 -5 51 -11 67 -6 15 -17 64 -23 108 l-12 80 -249 3 -250 2 2 -1231z m333 1101 c0 -6 12 -9 27 -8 18 2 28 -2 28 -10 0 -8 7 -19 15 -25 9 -7 28 -35 43 -64 35 -69 114 -150 130 -134 6 6 29 11 51 11 52 0 76 13 51 27 -13 8 -14 12 -5 18 6 4 16 3 22 -3 8 -8 21 -3 43 14 18 13 60 38 94 54 33 17 61 34 61 40 0 5 7 10 15 10 8 0 19 9 25 20 9 16 14 18 29 8 24 -15 55 -3 47 18 -5 13 -1 15 17 10 14 -3 32 1 43 9 20 15 90 18 133 6 29 -8 32 -23 31 -151 -1 -134 -26 -163 -154 -181 -33 -4 -84 -19 -113 -34 -29 -14 -70 -26 -91 -28 -27 -1 -39 -6 -38 -17 1 -11 -7 -14 -27 -12 -17 2 -29 -3 -33 -12 -3 -8 -30 -22 -59 -30 -65 -19 -128 -79 -163 -154 l-24 -54 -4 -716 c-2 -394 -6 -736 -9 -758 -10 -72 -25 -78 -197 -81 l-151 -2 -28 28 c-37 38 -41 80 -37 411 2 151 2 556 1 900 -2 344 0 647 3 675 3 27 1 72 -4 99 -10 47 -9 52 21 88 l30 38 89 0 c54 0 88 -4 88 -10z"/> <path d="M7055 12820 c-22 -4 -65 -13 -95 -18 -48 -9 -120 -28 -237 -63 -18 -5 -35 -14 -38 -19 -4 -6 -14 -10 -24 -10 -23 0 -159 -97 -224 -159 -83 -80 -157 -202 -191 -316 -10 -33 -23 -71 -28 -84 -25 -64 -30 -299 -33 -1311 -1 -586 -3 -1365 -4 -1732 -1 -367 0 -671 2 -675 3 -5 157 -8 344 -8 l338 0 -1 35 c-1 19 -2 668 -3 1443 -2 1448 -1 1423 -38 1399 -46 -29 -46 -33 -46 -1797 0 -1038 3 -944 -30 -979 -19 -21 -31 -26 -38 -19 -7 7 -67 9 -177 6 -196 -6 -248 3 -259 45 -5 15 -7 565 -6 1222 2 657 3 1416 3 1685 1 427 3 503 19 594 12 67 24 107 33 112 10 5 14 18 11 33 -7 35 25 113 48 119 10 3 19 14 19 25 0 10 9 27 20 37 11 10 20 23 20 30 0 6 12 17 26 23 18 9 24 17 19 31 -6 21 10 38 20 21 11 -18 38 -12 30 8 -4 9 -9 23 -12 30 -3 7 9 18 30 27 19 8 37 21 40 29 4 11 15 13 41 9 32 -5 36 -3 36 16 0 16 6 21 25 21 15 0 29 8 36 21 9 18 17 20 50 16 31 -4 39 -2 44 14 7 21 14 23 48 10 26 -10 53 1 43 17 -13 21 120 39 141 19 9 -10 91 -9 97 1 8 13 254 6 271 -8 10 -8 29 -10 54 -6 21 3 41 3 44 -1 4 -3 33 -8 64 -10 51 -4 110 -22 76 -23 -7 0 -13 -5 -13 -11 0 -8 17 -10 50 -7 47 5 50 4 61 -26 13 -32 24 -336 13 -336 -4 0 -12 7 -18 16 -10 13 -16 14 -39 3 -22 -10 -37 -9 -84 4 -32 10 -123 22 -202 27 -124 9 -146 8 -161 -5 -20 -18 -71 -20 -88 -3 -8 8 -15 8 -25 0 -7 -6 -32 -14 -55 -18 -23 -3 -47 -13 -53 -20 -6 -8 -19 -14 -29 -14 -28 0 -152 -99 -146 -117 4 -11 1 -13 -14 -8 -17 5 -20 2 -20 -24 0 -24 -3 -29 -16 -24 -23 9 -34 -15 -22 -49 8 -22 7 -33 -4 -46 -22 -25 -40 -84 -29 -95 5 -5 7 -26 4 -48 -6 -45 15 -85 53 -99 14 -6 24 -18 24 -29 0 -26 23 -44 37 -30 8 8 82 11 225 11 225 -1 337 -8 352 -23 6 -5 20 -9 32 -9 27 0 34 -30 34 -156 0 -77 -3 -94 -15 -94 -8 0 -15 -7 -15 -16 0 -10 6 -13 19 -9 11 3 21 0 24 -8 6 -16 -10 -37 -28 -37 -6 0 -18 -9 -28 -20 -15 -18 -24 -20 -70 -13 -28 4 -63 6 -77 6 -75 -5 -408 -3 -425 2 -32 9 -46 -7 -37 -40 6 -21 17 -31 40 -37 17 -5 182 -7 367 -6 l337 3 -1 259 c0 142 -3 261 -6 264 -3 3 -158 8 -345 10 -247 3 -349 1 -376 -8 -60 -20 -66 -6 -48 119 16 117 31 155 83 210 45 48 107 84 196 113 64 21 88 23 290 23 186 0 225 -3 245 -16 14 -9 41 -19 60 -22 19 -3 49 -9 66 -12 l31 -7 -3 257 c-1 141 -4 258 -6 259 -6 5 -164 46 -233 60 -90 19 -354 47 -425 45 -30 -1 -73 -5 -95 -9z"/> <path d="M7872 12702 c-10 -7 -10 -15 -1 -38 15 -37 22 -423 8 -440 -10 -12 -19 -2994 -9 -2994 138 -4 670 -4 670 0 0 3 0 786 0 1740 l0 1735 -327 2 c-181 2 -334 -1 -341 -5z m414 -82 c118 0 136 -2 153 -19 18 -18 19 -55 15 -1427 -2 -775 -4 -1416 -4 -1424 -1 -8 2 -67 6 -131 9 -158 -1 -241 -33 -279 l-25 -30 -202 0 c-189 0 -204 1 -221 20 -16 18 -18 62 -22 592 -2 315 -4 591 -4 613 0 22 0 236 0 475 -1 837 -5 1114 -16 1160 -11 42 -18 227 -14 350 2 80 17 94 104 101 40 4 85 5 101 3 16 -2 89 -4 162 -4z"/> <path d="M10160 11819 c-222 -32 -371 -73 -476 -129 -31 -16 -63 -30 -71 -30 -7 0 -16 -7 -19 -15 -4 -8 -12 -15 -18 -15 -35 0 -187 -139 -268 -245 -88 -116 -167 -303 -198 -467 -5 -26 -13 -55 -18 -65 -14 -26 -26 -189 -26 -343 0 -141 13 -274 33 -350 7 -25 19 -72 28 -105 8 -33 21 -73 28 -90 7 -16 23 -54 34 -83 61 -148 169 -293 301 -401 77 -63 332 -191 383 -191 12 -1 33 -7 47 -15 14 -8 37 -14 52 -15 15 0 37 -4 50 -10 70 -29 541 -29 713 0 236 39 457 150 613 308 39 40 72 77 72 83 0 6 12 28 28 48 34 45 49 70 62 99 5 13 20 46 33 75 13 29 32 72 42 97 9 25 22 56 27 70 5 14 14 45 18 70 5 25 13 65 19 90 24 108 30 292 16 482 -7 102 -18 195 -24 206 -6 12 -11 38 -11 59 0 21 -7 51 -15 67 -8 15 -15 34 -15 42 0 7 -6 28 -14 46 -8 18 -22 53 -31 78 -48 126 -131 245 -241 349 -49 46 -105 92 -124 103 -113 63 -169 91 -205 104 -22 8 -58 21 -81 29 -54 19 -179 45 -279 56 -117 14 -390 18 -465 8z m118 -81 c8 -8 15 -8 26 1 11 9 56 11 183 6 138 -6 173 -11 199 -26 17 -11 45 -19 61 -19 17 0 43 -4 59 -9 16 -5 54 -14 84 -21 30 -7 71 -21 90 -30 35 -18 57 -28 116 -50 18 -6 49 -27 70 -47 22 -19 49 -39 62 -44 12 -5 21 -14 20 -21 -2 -7 6 -13 17 -13 12 0 19 -6 17 -16 -1 -9 18 -37 42 -62 24 -26 40 -47 35 -47 -14 0 -10 -36 6 -50 8 -6 18 -9 24 -6 12 8 51 -41 51 -63 0 -10 11 -32 25 -51 14 -19 25 -39 25 -46 0 -6 6 -17 14 -23 7 -6 17 -35 20 -63 4 -29 12 -59 19 -66 6 -8 12 -42 14 -76 1 -34 7 -75 14 -92 7 -16 14 -88 15 -168 2 -77 8 -144 13 -149 5 -5 6 -19 2 -31 -11 -29 -26 -154 -22 -192 1 -17 -7 -59 -18 -92 -12 -34 -21 -74 -21 -89 0 -15 -9 -46 -19 -68 -10 -22 -21 -53 -25 -69 -4 -16 -18 -45 -32 -65 -13 -19 -24 -40 -24 -46 0 -23 -44 -92 -76 -118 -19 -16 -34 -37 -34 -47 0 -11 -9 -24 -20 -30 -11 -6 -20 -19 -20 -30 0 -10 -8 -21 -18 -24 -10 -3 -33 -21 -52 -39 -51 -47 -85 -67 -108 -60 -23 6 -71 -24 -72 -44 0 -8 -14 -13 -34 -13 -26 0 -33 -4 -32 -17 1 -12 -12 -21 -39 -30 -22 -7 -49 -17 -60 -22 -19 -9 -68 -17 -285 -47 -139 -18 -327 -18 -430 2 -45 8 -88 13 -96 10 -7 -3 -16 -1 -18 3 -3 4 -27 11 -53 14 -26 3 -68 15 -93 26 -25 11 -57 21 -72 21 -29 0 -39 24 -15 33 6 3 -4 3 -23 0 -21 -3 -47 2 -65 11 -16 9 -35 16 -41 16 -7 0 -19 11 -28 25 -10 15 -26 25 -40 25 -13 0 -26 7 -30 15 -3 8 -15 15 -27 15 -17 0 -20 5 -17 25 5 21 2 25 -13 20 -14 -5 -22 1 -29 20 -7 17 -15 25 -24 22 -19 -7 -38 16 -30 36 3 10 -4 24 -20 38 -14 13 -26 28 -26 35 0 7 -14 14 -32 16 -27 3 -33 8 -41 38 -5 19 -22 53 -38 74 -16 22 -29 52 -29 67 0 14 -7 32 -15 39 -8 7 -15 20 -15 29 0 19 -21 77 -38 108 -7 12 -12 44 -12 70 0 27 -5 54 -12 61 -9 9 -12 74 -12 230 -1 284 7 399 27 439 10 18 17 40 17 50 0 10 10 27 21 37 18 15 20 25 15 57 -5 34 0 52 34 117 22 43 40 83 40 90 0 6 7 9 15 6 11 -5 13 1 8 32 -6 35 -5 37 16 31 18 -4 27 3 53 44 16 27 39 54 50 60 15 8 17 13 8 25 -10 11 -9 15 6 21 10 4 19 2 22 -5 7 -23 32 -13 32 13 0 17 5 25 18 25 9 0 23 9 30 20 7 11 22 20 33 20 11 0 35 16 52 36 41 45 82 70 132 78 51 9 104 27 130 43 11 7 41 13 67 13 29 0 48 5 48 11 0 7 12 10 30 7 17 -3 61 1 98 8 89 16 106 16 120 2z m-868 -2068 c0 -11 -4 -20 -10 -20 -5 0 -10 9 -10 20 0 11 5 20 10 20 6 0 10 -9 10 -20z"/> <path d="M10270 11380 c-8 -5 -41 -10 -72 -10 -31 0 -60 -4 -63 -10 -3 -5 -26 -10 -51 -10 -41 0 -59 -13 -31 -23 6 -3 -10 -14 -36 -26 -27 -11 -55 -28 -64 -36 -8 -9 -23 -13 -34 -10 -14 5 -25 -5 -50 -44 -17 -28 -35 -51 -40 -51 -5 0 -14 -11 -19 -24 -5 -14 -23 -44 -40 -67 -16 -23 -30 -55 -30 -70 0 -33 -15 -45 -35 -29 -12 10 -14 2 -12 -47 2 -52 0 -58 -17 -55 -17 3 -18 -2 -11 -58 7 -60 7 -62 -14 -55 -15 5 -21 2 -21 -10 0 -9 7 -15 17 -13 25 4 27 -25 6 -69 -10 -21 -17 -56 -16 -78 0 -22 2 -73 3 -113 2 -40 7 -75 11 -78 5 -3 9 -13 8 -22 0 -11 -3 -12 -6 -4 -10 25 -23 11 -23 -25 1 -34 2 -36 14 -20 12 16 14 15 26 -13 7 -16 9 -41 6 -55 -4 -16 1 -39 14 -64 25 -49 50 -121 50 -143 0 -19 88 -138 102 -138 4 0 8 -9 8 -20 0 -11 5 -20 11 -20 22 0 50 -43 44 -68 -6 -23 -4 -23 39 -17 38 6 46 4 55 -14 7 -12 16 -21 22 -21 6 0 23 -8 37 -19 15 -10 51 -22 81 -26 30 -4 70 -14 90 -22 39 -17 278 -28 296 -14 5 5 28 11 51 15 59 9 145 51 187 91 23 22 44 34 59 32 15 -1 23 4 26 18 2 11 22 37 43 58 22 21 44 49 50 64 7 20 13 23 21 15 22 -22 30 -12 23 27 -5 32 -3 43 15 61 17 17 19 28 14 57 -6 30 -3 39 16 53 19 14 24 34 39 166 20 165 19 260 -5 409 -19 122 -34 176 -68 243 -14 28 -26 60 -26 72 0 11 -4 20 -10 20 -5 0 -10 11 -10 25 0 14 -6 25 -13 25 -7 0 -29 22 -49 49 -22 29 -53 56 -77 67 -30 14 -39 23 -35 37 4 14 -1 17 -30 17 -24 0 -36 5 -36 14 0 16 -21 26 -56 26 -14 0 -39 8 -57 17 -38 20 -62 24 -184 26 -50 1 -95 5 -99 10 -10 10 -26 9 -44 -3z m275 -96 c106 -32 192 -76 245 -127 93 -86 145 -183 181 -332 27 -112 30 -144 30 -287 0 -215 -28 -366 -94 -506 -42 -89 -161 -198 -257 -236 -8 -3 -22 -10 -30 -15 -30 -18 -118 -33 -220 -38 -110 -6 -218 10 -287 43 -18 8 -50 22 -70 32 -21 9 -68 46 -104 82 -133 132 -183 261 -224 581 -7 55 17 245 44 349 58 222 157 352 322 423 47 20 153 46 204 49 81 6 211 -3 260 -18z"/> <path d="M11964 11788 c-3 -10 2 -28 10 -40 9 -12 16 -32 16 -45 0 -12 5 -34 12 -50 6 -15 17 -50 24 -78 6 -27 21 -84 32 -125 11 -41 27 -109 36 -150 8 -41 19 -100 26 -130 6 -30 15 -84 20 -119 5 -35 14 -77 19 -95 5 -17 19 -76 31 -131 12 -55 25 -116 30 -135 19 -77 32 -137 40 -187 4 -28 12 -58 17 -65 4 -7 13 -35 20 -63 13 -57 32 -135 61 -250 26 -106 42 -172 51 -220 4 -22 13 -56 19 -75 15 -44 62 -231 73 -290 5 -25 13 -54 18 -65 12 -29 31 -100 44 -173 7 -34 17 -66 24 -70 6 -4 149 -6 317 -4 l305 3 12 42 c6 23 22 69 36 102 41 98 50 123 98 285 26 85 51 163 56 172 5 10 13 34 18 55 10 41 27 90 48 140 7 17 13 40 13 51 0 12 4 23 9 27 5 3 19 38 31 78 12 39 28 90 35 112 7 22 23 74 36 115 12 41 26 79 31 85 4 5 8 19 8 31 0 13 4 25 9 28 5 4 12 25 16 49 4 23 11 47 15 52 7 9 18 45 67 215 8 30 22 70 29 88 21 48 1 107 -23 70 -4 -7 -6 -21 -5 -30 4 -21 -9 -23 -26 -6 -9 9 -12 7 -12 -12 0 -13 -13 -57 -29 -99 -42 -113 -51 -143 -45 -153 3 -4 -11 -41 -30 -81 -19 -39 -38 -84 -41 -99 -3 -16 -12 -28 -20 -28 -18 0 -19 -12 -4 -27 9 -9 5 -20 -15 -43 -19 -23 -26 -42 -24 -67 1 -19 -3 -37 -9 -41 -16 -10 -33 -57 -33 -91 0 -15 -5 -32 -11 -38 -6 -6 -12 -32 -13 -56 -1 -25 -9 -51 -17 -59 -19 -20 -47 -111 -54 -181 -7 -60 -23 -72 -36 -26 -6 19 -8 15 -10 -21 -2 -25 -3 -62 -4 -83 0 -29 -6 -42 -30 -61 -27 -22 -28 -26 -17 -50 14 -32 9 -56 -24 -122 -13 -26 -24 -57 -24 -69 0 -28 -74 -141 -103 -156 -15 -8 -85 -12 -217 -12 -250 -1 -239 -2 -251 31 -6 15 -17 35 -26 44 -10 11 -13 26 -9 45 4 19 0 37 -14 58 -11 17 -20 46 -20 66 0 20 -7 53 -15 72 -8 20 -15 57 -15 82 0 43 -12 59 -24 33 -4 -7 -4 -2 -2 11 3 12 -5 57 -16 100 -11 42 -26 108 -33 146 -7 39 -20 87 -29 108 -25 57 -40 131 -45 215 0 12 -7 22 -15 22 -21 0 -28 32 -20 85 5 38 4 45 -10 45 -13 0 -16 11 -16 49 0 31 -5 53 -15 61 -17 14 -20 76 -5 85 13 8 -6 35 -24 35 -7 0 -12 17 -12 43 -1 60 -39 252 -63 319 -12 31 -18 64 -15 73 4 9 0 30 -8 48 -26 55 -39 100 -45 165 -3 34 -10 65 -14 68 -5 3 -9 16 -9 28 0 13 -7 43 -15 67 -15 40 -14 45 2 56 13 10 14 16 5 25 -9 9 -12 9 -12 -1 0 -7 -4 -10 -9 -7 -5 3 -8 32 -7 63 1 56 2 58 26 55 14 -1 30 -2 35 -1 6 1 75 3 154 6 122 3 146 2 161 -12 17 -15 19 -15 25 4 11 35 29 24 65 -41 29 -53 35 -74 36 -130 1 -38 8 -82 18 -101 8 -19 20 -65 26 -103 6 -38 15 -89 21 -114 11 -49 33 -176 48 -278 5 -35 14 -69 19 -75 5 -7 12 -55 16 -107 3 -52 13 -117 21 -144 8 -27 15 -66 15 -87 0 -21 5 -41 11 -44 6 -4 8 -13 5 -21 -3 -8 -2 -22 3 -32 12 -21 31 -125 31 -165 0 -16 9 -40 20 -55 11 -14 25 -45 32 -69 6 -24 14 -46 19 -48 23 -15 24 158 1 245 -6 25 -25 122 -41 215 -17 94 -35 199 -41 235 -7 36 -16 88 -20 115 -4 28 -13 66 -19 85 -6 19 -11 48 -11 65 0 16 -6 59 -14 95 -8 36 -21 108 -30 160 -9 52 -21 120 -27 150 -6 30 -14 83 -19 118 -5 35 -13 68 -17 75 -4 6 -10 42 -13 80 l-5 69 -338 1 c-312 2 -338 1 -343 -15z"/> <path d="M13539 11762 c-11 -24 -19 -49 -19 -56 0 -7 -3 -15 -6 -19 -4 -3 -17 -39 -31 -79 -13 -40 -28 -82 -32 -93 -5 -11 -19 -51 -32 -90 -22 -70 -32 -97 -63 -168 -9 -21 -16 -47 -16 -58 0 -12 -6 -33 -14 -47 -7 -15 -21 -52 -31 -82 -9 -30 -20 -64 -24 -75 -12 -29 -71 -205 -81 -240 -5 -16 -16 -52 -24 -80 -8 -27 -24 -75 -36 -105 -12 -30 -25 -68 -30 -85 -5 -16 -18 -55 -30 -85 -12 -30 -25 -68 -29 -85 -11 -41 -32 -105 -43 -131 -5 -11 -8 -42 -6 -70 l3 -49 15 29 c8 16 27 42 42 57 17 16 28 38 28 54 0 32 17 65 41 83 11 7 21 32 25 60 3 26 14 61 24 77 10 17 21 53 25 80 4 28 12 59 18 70 18 33 46 119 47 141 0 20 37 128 58 171 50 102 65 152 66 218 1 22 6 30 19 29 13 -1 17 6 17 28 0 25 28 106 74 213 7 17 16 46 20 65 8 41 28 92 68 176 16 34 26 68 22 77 -7 20 25 24 44 5 8 -8 15 -8 27 2 24 20 254 27 266 9 6 -11 13 -11 26 -3 25 15 83 6 83 -13 0 -8 16 -48 35 -89 19 -40 35 -82 35 -93 0 -11 5 -23 10 -26 6 -3 10 -21 10 -39 0 -19 6 -39 14 -45 8 -7 20 -35 26 -64 7 -29 18 -59 25 -67 16 -21 65 -180 65 -214 0 -19 6 -29 20 -33 13 -3 20 -14 20 -29 0 -32 33 -147 59 -207 12 -27 21 -53 21 -59 0 -6 11 -35 25 -63 13 -29 27 -72 31 -96 4 -24 16 -57 28 -74 29 -39 52 -141 37 -159 -9 -11 -6 -15 10 -19 17 -5 20 -11 15 -31 -3 -14 -2 -27 2 -30 5 -3 24 -36 43 -73 63 -126 131 -170 95 -62 -8 24 -17 60 -21 79 -4 19 -11 41 -16 50 -4 8 -22 60 -40 115 -17 55 -36 108 -41 119 -5 10 -27 77 -49 149 -22 72 -44 136 -49 141 -6 6 -10 19 -10 29 0 10 -6 33 -14 50 -15 34 -59 162 -81 237 -7 25 -25 77 -40 115 -30 80 -92 255 -105 300 -12 43 -30 95 -45 130 -7 17 -21 55 -30 85 -10 30 -20 61 -24 68 -5 11 -63 14 -280 15 l-274 2 -18 -43z"/> <path d="M15000 11796 c-6 -6 -10 -38 -10 -72 0 -35 -4 -75 -10 -89 -5 -14 -12 -59 -15 -98 -3 -40 -12 -106 -20 -147 -8 -41 -21 -120 -30 -175 -9 -55 -21 -120 -27 -145 -6 -25 -14 -74 -19 -110 -4 -36 -15 -101 -23 -145 -9 -44 -22 -120 -31 -170 -8 -49 -19 -108 -25 -130 -5 -22 -10 -59 -10 -82 0 -23 -5 -54 -12 -70 -17 -42 -19 -313 -3 -313 8 0 17 15 20 33 4 17 16 46 26 63 17 29 26 84 33 205 2 26 7 52 12 60 4 8 14 54 21 104 7 49 19 114 28 144 8 30 12 64 9 77 -3 13 0 40 7 61 7 21 16 67 20 103 11 93 20 133 32 148 6 8 10 45 10 82 -1 50 3 70 13 74 10 4 14 24 14 73 1 37 8 86 16 108 9 22 15 68 14 104 -1 48 3 68 17 84 13 14 15 21 6 24 -18 6 -16 48 2 63 9 7 14 19 11 26 -3 8 0 11 9 8 7 -3 40 1 72 9 85 22 351 17 369 -7 15 -21 28 -102 18 -118 -11 -18 -36 -129 -38 -168 0 -19 -4 -40 -8 -45 -3 -6 -9 -28 -13 -50 -4 -22 -15 -52 -23 -67 -11 -19 -13 -30 -5 -40 12 -15 0 -58 -17 -58 -5 0 -10 -23 -10 -53 0 -34 -6 -61 -17 -77 -12 -17 -18 -45 -19 -86 -1 -48 -6 -68 -23 -90 -19 -24 -21 -36 -16 -71 5 -34 3 -43 -9 -43 -17 0 -30 -33 -22 -58 3 -10 -7 -56 -24 -102 -16 -47 -30 -104 -30 -127 0 -24 -4 -43 -9 -43 -5 0 -12 -17 -16 -38 -3 -21 -14 -51 -25 -67 -15 -22 -16 -32 -7 -47 10 -15 8 -25 -5 -49 -10 -17 -18 -51 -18 -76 0 -37 -4 -46 -21 -50 -16 -5 -19 -11 -14 -31 4 -16 0 -31 -11 -43 -10 -11 -12 -19 -6 -19 7 0 12 -4 12 -10 0 -5 -7 -10 -15 -10 -11 0 -15 -13 -15 -53 0 -29 -6 -61 -14 -72 -7 -11 -16 -36 -19 -55 -3 -19 -13 -64 -22 -100 -9 -36 -19 -82 -22 -103 -3 -20 -9 -40 -14 -43 -5 -3 -9 -13 -9 -23 0 -10 -7 -24 -15 -31 -8 -7 -15 -25 -15 -40 0 -39 -28 -89 -60 -109 -24 -14 -61 -17 -244 -19 l-216 -2 -23 26 c-22 25 -26 36 -48 129 -6 28 -17 57 -24 65 -17 19 -38 98 -31 116 3 7 -1 33 -10 56 -8 23 -12 54 -9 69 8 34 -11 48 -30 23 -8 -11 -15 -14 -15 -7 0 6 5 15 11 18 19 12 -2 87 -37 134 -19 24 -34 53 -34 65 0 29 -24 104 -49 157 -12 23 -21 51 -21 61 0 10 -14 47 -31 83 -23 50 -28 68 -20 84 8 14 6 28 -8 57 -38 77 -53 119 -62 173 -4 29 -15 61 -24 71 -8 9 -15 23 -15 32 0 26 -70 222 -89 248 -10 14 -21 35 -25 48 -8 24 -34 30 -42 9 -6 -17 24 -159 36 -171 6 -6 10 -19 10 -31 0 -19 29 -114 49 -160 5 -11 16 -45 25 -75 18 -64 74 -239 91 -290 7 -19 18 -55 24 -80 17 -66 27 -96 56 -180 14 -41 31 -88 36 -105 6 -16 15 -47 20 -68 5 -21 13 -45 19 -55 5 -9 30 -84 55 -167 26 -82 52 -168 60 -190 7 -22 16 -55 20 -72 4 -18 11 -35 16 -38 5 -4 9 -25 9 -48 0 -74 -18 -70 336 -68 174 0 320 3 323 6 3 4 13 36 22 73 9 37 21 81 27 97 28 81 42 132 42 150 1 11 7 29 15 39 8 11 15 31 15 44 0 13 6 45 14 71 14 44 30 107 46 181 4 19 19 76 34 125 25 88 40 142 72 268 9 34 20 73 26 86 5 14 13 43 18 65 4 23 25 102 45 176 20 74 40 153 45 175 5 22 16 69 25 105 24 98 57 249 65 300 4 25 13 68 20 95 6 28 16 66 21 85 4 19 17 66 29 104 11 38 20 79 20 91 0 13 7 39 15 58 8 20 15 49 15 65 0 16 7 46 16 67 8 20 13 40 10 42 -10 10 -667 8 -676 -1z"/> <path d="M11490 11584 c0 -17 22 -14 28 4 2 7 -3 12 -12 12 -9 0 -16 -7 -16 -16z"/> <path d="M13790 11050 c0 -5 9 -10 21 -10 11 0 17 5 14 10 -3 6 -13 10 -21 10 -8 0 -14 -4 -14 -10z"/> <path d="M12030 10510 c0 -11 5 -20 10 -20 6 0 10 9 10 20 0 11 -4 20 -10 20 -5 0 -10 -9 -10 -20z"/> <path d="M14693 10028 c2 -7 12 -13 22 -13 10 0 20 6 23 13 2 7 -6 12 -23 12 -17 0 -25 -5 -22 -12z"/> <path d="M15270 7833 c0 -18 2 -33 4 -33 9 0 13 39 5 51 -6 10 -9 4 -9 -18z"/> <path d="M15270 1197 c0 -31 4 -57 10 -57 5 0 7 22 3 53 -8 71 -13 72 -13 4z"/> </g> </svg>